<svg width="45" height="42" viewBox="0 0 45 42" fill="none" xmlns="http://www.w3.org/2000/svg">
<path d="M13.5319 2.69259V4.30338L14.4375 4.32766L15.3343 4.35195L15.3607 7.40355L15.3783 10.4632L9.35561 21.5526C6.04094 27.6558 3.21864 32.9253 3.09554 33.2733C2.88453 33.8238 2.85815 34.0099 2.85815 34.9489C2.85815 35.8636 2.89332 36.0821 3.09554 36.6487C3.64945 38.1867 4.70452 39.3037 6.28712 40.016C7.60596 40.6069 6.60364 40.5745 22.5527 40.5745C36.4357 40.5745 36.9104 40.5664 37.5523 40.4207C39.6184 39.9351 41.2274 38.5428 41.9044 36.6487C42.1066 36.0821 42.1418 35.8636 42.1418 34.9489C42.1418 34.0099 42.1154 33.8238 41.9044 33.2733C41.7813 32.9253 38.959 27.6558 35.6444 21.5526L29.6217 10.4632L29.6393 7.40355L29.6656 4.35195L30.5712 4.32766L31.4681 4.30338V2.69259V1.0737H22.5H13.5319V2.69259ZM26.1048 7.95397L26.1488 11.475L27.9775 14.8261C28.9886 16.6636 29.7799 18.1934 29.7536 18.2177C29.6393 18.3229 27.3533 18.2582 26.606 18.1206C25.6828 17.9587 24.5398 17.5944 23.643 17.1816C22.6582 16.7283 21.4185 16.3236 20.3898 16.1212C19.6513 15.9755 19.1677 15.9351 17.9544 15.9351C17.1191 15.927 16.4333 15.9189 16.4333 15.9027C16.4333 15.8946 16.9873 14.8666 17.6643 13.6201L18.8952 11.3536V7.87302V4.39242L22.4824 4.40861L26.0608 4.43289L26.1048 7.95397ZM18.8072 19.2862C19.9414 19.3995 20.7327 19.6099 21.99 20.1361C25.1816 21.4879 27.6698 21.8521 30.6504 21.4231C31.0988 21.3583 31.4768 21.3098 31.4944 21.3098C31.5032 21.3098 33.1122 24.2481 35.0553 27.842L38.5985 34.3823L38.6073 34.9246C38.6073 35.8717 38.0534 36.673 37.1127 37.1101L36.6994 37.2963H22.5439H8.38846L7.92248 37.102C7.64992 36.9887 7.30702 36.7539 7.06963 36.5111C6.56847 36.0012 6.37504 35.4669 6.4278 34.7546C6.47176 34.2447 6.63002 33.9371 10.3491 27.0811L14.2265 19.9499L14.7013 19.7799C15.4222 19.5371 16.2048 19.3671 16.9521 19.2943C17.9017 19.1971 17.8841 19.1971 18.8072 19.2862Z" fill="#0579AA"/>
<path d="M18.8953 25.7617V27.3806H20.6977H22.5001V25.7617V24.1428H20.6977H18.8953V25.7617Z" fill="#0579AA"/>
<path d="M27.8633 29.0399V30.6993H29.6657H31.4681L31.4505 29.0561L31.4241 27.421L29.6481 27.3968L27.8633 27.3806V29.0399Z" fill="#0579AA"/>
<path d="M13.532 32.3586V34.018H15.3344H17.1368V32.3586V30.6993H15.3344H13.532V32.3586Z" fill="#0579AA"/>
</svg>
