<svg width="70" height="70" viewBox="0 0 70 70" fill="none" xmlns="http://www.w3.org/2000/svg">
<path d="M28.8477 2.36523V4.73047L27.7949 4.97656C27.207 5.11328 26.3867 5.33203 25.9629 5.46875L25.1973 5.70117L24.0625 3.70508C23.4336 2.61133 22.9004 1.68164 22.8867 1.6543C22.832 1.59961 12.332 7.64258 12.25 7.7793C12.2227 7.82031 12.7148 8.76367 13.3574 9.85742L14.5059 11.8535L13.166 13.166L11.8262 14.4922L9.84375 13.3438C8.75 12.7148 7.82031 12.2227 7.7793 12.25C7.64258 12.332 1.59961 22.832 1.6543 22.8867C1.68164 22.9004 2.61133 23.4336 3.70508 24.0625L5.70117 25.1973L5.46875 25.9629C5.33203 26.3867 5.11328 27.207 4.97656 27.7812L4.73047 28.8477H2.36523H0V35V41.1523H2.36523H4.73047L4.97656 42.2051C5.11328 42.793 5.33203 43.6133 5.46875 44.0371L5.70117 44.8027L3.70508 45.9375C2.61133 46.5664 1.68164 47.0996 1.6543 47.1133C1.59961 47.168 7.64258 57.668 7.7793 57.75C7.82031 57.7773 8.76367 57.2852 9.85742 56.6562L11.8535 55.4941L13.1797 56.834L14.5059 58.1602L13.3574 60.1426C12.7148 61.2363 12.2227 62.1797 12.25 62.2207C12.332 62.3574 22.832 68.4004 22.8867 68.3457C22.9004 68.3184 23.4336 67.3887 24.0625 66.2949L25.1973 64.2988L25.9629 64.5312C26.3867 64.668 27.207 64.8867 27.7949 65.0234L28.8477 65.2695V67.6348V70H35H41.1523V67.6348V65.2695L42.2188 65.0234C42.793 64.8867 43.6133 64.668 44.0371 64.5312L44.8027 64.2988L45.9512 66.3223C46.7715 67.7715 47.1543 68.332 47.3047 68.2773C47.6055 68.168 57.4766 62.4668 57.6543 62.2891C57.7637 62.1797 57.5176 61.6465 56.6562 60.1426L55.4941 58.1602L56.8203 56.8203L58.1602 55.4941L60.1426 56.6426C61.2363 57.2852 62.1797 57.7773 62.2207 57.75C62.3574 57.668 68.4004 47.168 68.3457 47.1133C68.3184 47.0859 67.4023 46.5664 66.3086 45.9375L64.3125 44.7891L64.7637 43.1484C65.0098 42.2461 65.2148 41.4395 65.2148 41.3301C65.2148 41.1934 65.7207 41.1523 67.6074 41.1523H70V35V28.8477H67.6348H65.2695L65.0234 27.7812C64.8867 27.207 64.668 26.3867 64.5312 25.9766L64.2988 25.2109L66.2949 24.0625C67.3887 23.4336 68.3184 22.9141 68.3457 22.8867C68.4004 22.832 62.3574 12.332 62.2207 12.25C62.1797 12.2227 61.2363 12.7148 60.1426 13.3574L58.1602 14.5059L56.8203 13.1797L55.4941 11.8398L56.6562 9.85742C57.5176 8.35352 57.7637 7.82031 57.6543 7.71094C57.5586 7.61523 56.2871 6.86328 54.8242 6.01562C53.3613 5.16797 51.0371 3.8418 49.6562 3.04883C48.2891 2.25586 47.1406 1.62695 47.1133 1.6543C47.0996 1.68164 46.5664 2.61133 45.9375 3.70508L44.8027 5.70117L44.0371 5.46875C43.6133 5.33203 42.793 5.11328 42.2188 4.97656L41.1523 4.73047V2.36523V0H35H28.8477V2.36523ZM37.0508 6.15234C37.0508 8.50391 36.832 8.20312 38.7598 8.47656C40.8379 8.77734 44.0098 9.69336 46.0879 10.582L46.5938 10.7871L47.5918 9.05078C48.1387 8.09375 48.6035 7.28711 48.6172 7.25977C48.6445 7.23242 51.9668 9.05078 52.1992 9.24219C52.2402 9.26953 51.3652 10.8281 50.4355 12.3867L50.1758 12.8105L51.5156 13.918C53.0332 15.1758 55.2207 17.3906 56.3828 18.8398L57.1621 19.8379L57.5996 19.5781C59.2266 18.6074 60.7305 17.7598 60.7578 17.8008C60.9492 18.0469 62.7676 21.3555 62.7402 21.3828C62.7129 21.3965 61.9062 21.8613 60.9492 22.4082L59.2129 23.4062L59.418 23.9121C60.3066 25.9902 61.2227 29.1621 61.5234 31.2402C61.7969 33.168 61.4961 32.9492 63.8477 32.9492H65.8984V35V37.0508H63.8477C61.4961 37.0508 61.7969 36.832 61.5234 38.7598C61.2227 40.8379 60.3066 44.0098 59.418 46.0879L59.2129 46.5938L60.9492 47.5918C61.9062 48.1387 62.7129 48.6035 62.7402 48.6172C62.7676 48.6445 60.9492 51.9531 60.7578 52.1992C60.7305 52.2402 59.2266 51.3926 57.5996 50.4219L57.1621 50.1621L56.3828 51.1602C55.3711 52.4453 52.4453 55.3711 51.1602 56.3828L50.1621 57.1621L50.4219 57.5996C51.3652 59.1582 52.2402 60.7305 52.1992 60.7578C51.9668 60.9492 48.6445 62.7676 48.6172 62.7402C48.6035 62.7129 48.1387 61.9062 47.5918 60.9492L46.5938 59.2129L46.0879 59.418C44.0098 60.3066 40.8379 61.2227 38.7598 61.5234C36.832 61.7969 37.0508 61.4961 37.0508 63.8477V65.8984H35H32.9492V63.8477C32.9492 61.5234 33.0859 61.7695 31.6504 61.5918C29.7637 61.3594 25.7852 60.2383 23.9121 59.4316L23.4062 59.2129L22.4082 60.9492C21.8613 61.9062 21.3965 62.7129 21.3828 62.7402C21.3555 62.7676 18.1836 61.0176 17.8008 60.7578C17.7598 60.7305 18.6484 59.1445 19.5781 57.5996L19.8379 57.1621L18.8398 56.3828C17.5547 55.3711 14.6289 52.4453 13.6172 51.1602L12.8379 50.1621L12.4004 50.4219C10.8418 51.3652 9.26953 52.2402 9.24219 52.1992C9.05078 51.9668 7.23242 48.6445 7.25977 48.6172C7.28711 48.6035 8.09375 48.1387 9.05078 47.5918L10.7871 46.5938L10.582 46.0879C9.69336 44.0098 8.77734 40.8379 8.47656 38.7598C8.20312 36.832 8.50391 37.0508 6.15234 37.0508H4.10156V35V32.9492H6.15234C8.50391 32.9492 8.20312 33.168 8.47656 31.2402C8.77734 29.1621 9.69336 25.9902 10.582 23.9121L10.7871 23.4062L9.05078 22.4082C8.09375 21.8613 7.28711 21.3965 7.25977 21.3828C7.23242 21.3555 9.05078 18.0332 9.24219 17.8008C9.26953 17.7598 10.8281 18.6348 12.3867 19.5645L12.8105 19.8242L13.918 18.4844C15.1758 16.9668 17.3906 14.7793 18.8398 13.6172L19.8379 12.8379L19.5781 12.4004C18.6484 10.8555 17.7598 9.26953 17.8008 9.24219C18.1836 8.98242 21.3555 7.23242 21.3828 7.25977C21.3965 7.28711 21.8613 8.09375 22.4082 9.05078L23.4062 10.7871L23.9121 10.582C25.9902 9.69336 29.1621 8.77734 31.2402 8.47656C33.168 8.20312 32.9492 8.50391 32.9492 6.15234V4.10156H35H37.0508V6.15234Z" fill="#0579AA"/>
<path d="M33.1543 12.4414C22.873 13.3301 14.4922 20.9863 12.7012 31.1172C12.3047 33.373 12.3047 36.627 12.7012 38.8828C14.3555 48.2617 21.752 55.6445 31.1445 57.2988C33.373 57.6953 36.6406 57.6953 38.8828 57.2988C47.0859 55.8496 53.8945 49.957 56.4922 42.0547C57.2852 39.6348 57.5859 37.707 57.5859 35C57.5859 32.293 57.2852 30.3652 56.4922 27.9453C54.2637 21.1641 48.918 15.8047 42.1094 13.5215C39.4023 12.6191 35.9297 12.1953 33.1543 12.4414ZM38.2812 16.7617C42 17.4043 45.7051 19.4004 48.4121 22.2441C51.7344 25.7578 53.498 30.1465 53.498 35C53.498 40.0723 51.6797 44.4473 48.0566 48.0566C45.2539 50.873 41.9727 52.582 38.1445 53.2656C36.4355 53.5664 33.5645 53.5664 31.8555 53.2656C24.1445 51.8984 18.1016 45.8555 16.7344 38.1445C16.4336 36.4355 16.4336 33.5645 16.7344 31.8555C17.4316 27.9316 19.4004 24.2812 22.2852 21.5605C26.6328 17.4727 32.3477 15.75 38.2812 16.7617Z" fill="#0579AA"/>
<path d="M37.9668 25.6621C37.9121 25.7031 37.8711 26.6328 37.8711 27.7129V29.668H39.4434C40.3047 29.668 41.0156 29.709 41.0156 29.7773C41.0156 29.832 39.6621 31.2266 38.0078 32.8809L35 35.8887L32.9492 33.8379L30.8984 31.7871L26.0449 36.6406L21.1914 41.4941L22.627 42.9297L24.0625 44.3652L27.4531 40.9746L30.8301 37.5977L32.9219 39.6758L35 41.7676L39.5117 37.2559L44.0098 32.7578L44.0508 34.3164L44.0918 35.8887L46.1152 35.9297L48.125 35.9707V30.7617V25.5664H43.0938C40.3184 25.5664 38.0078 25.6074 37.9668 25.6621Z" fill="#0579AA"/>
</svg>
