<svg width="45" height="45" viewBox="0 0 45 45" fill="none" xmlns="http://www.w3.org/2000/svg">
<g clip-path="url(#clip0_343_1388)">
<path d="M21.0849 2.68068L18.5625 3.9463L17.8681 3.59474C17.2793 3.28712 17.0683 3.23439 16.4531 3.19044C14.8271 3.07618 13.4472 3.85841 12.7177 5.32618C12.4716 5.81837 12.2783 6.71486 12.3222 7.18068C12.3486 7.4795 12.331 7.49708 11.9179 7.65529C10.2919 8.30568 9.27241 10.0547 9.56245 11.707C9.61519 12.0147 9.6855 12.3399 9.71187 12.4453C9.75581 12.5947 9.70308 12.6563 9.38667 12.7969C9.18452 12.8848 8.78902 13.1836 8.51656 13.4561C7.64644 14.3262 7.25972 15.4951 7.44429 16.6729C7.49702 16.9981 7.56734 17.332 7.5937 17.4024C7.62886 17.499 7.53218 17.5957 7.25093 17.7451C6.61812 18.0791 5.98531 18.7647 5.65132 19.4854C5.00093 20.8477 5.22945 22.4736 6.21382 23.5635L6.53023 23.9151L3.31343 27.1406C0.544876 29.918 0.096634 30.4102 0.0438996 30.6914C-0.114303 31.5527 0.456986 32.2559 1.31831 32.2559C1.52046 32.2559 1.76656 32.2119 1.87202 32.1592C1.97749 32.1065 3.53316 30.5947 5.33492 28.8018L8.60445 25.541L9.6855 25.5322C10.7138 25.5322 10.7929 25.5147 11.3554 25.251C12.5595 24.6885 13.2714 23.7393 13.5703 22.3154C13.6142 22.1221 13.6933 22.0694 14.08 21.9815C15.5478 21.6563 16.664 20.5752 17.0156 19.1426L17.165 18.5537L17.6132 18.457C19.0722 18.1582 20.2412 16.9805 20.5752 15.4863C20.663 15.0996 20.7158 15.0205 20.9091 14.9766C22.333 14.6777 23.2822 13.9658 23.8447 12.7617C24.1084 12.1992 24.1259 12.1201 24.1259 11.0918L24.1347 10.0108L26.455 7.68165C27.7382 6.39845 28.8896 5.29103 29.0214 5.22072C29.3378 5.05372 29.8476 5.06251 30.1552 5.24708C30.5244 5.46681 30.7968 6.06447 30.7177 6.48634C30.665 6.7588 30.3837 7.09279 28.872 8.6133C27.8964 9.60646 27.0439 10.5029 26.9912 10.6084C26.8505 10.8809 26.8681 11.4785 27.0263 11.7774C27.2021 12.1113 27.5537 12.375 27.9052 12.4453C28.5029 12.5508 28.7226 12.4277 29.9355 11.2412C31.1308 10.0811 31.4033 9.91408 31.9394 10.0547C32.2734 10.1338 32.6689 10.5205 32.7832 10.8545C32.9765 11.4522 32.8623 11.6279 31.333 13.1836C30.5507 13.9834 29.8564 14.7305 29.7949 14.8447C29.7421 14.959 29.6894 15.2139 29.6894 15.4248C29.6718 16.1631 30.2431 16.7344 30.9814 16.7168C31.4912 16.7168 31.6494 16.6113 32.5195 15.7764C33.3369 14.9942 33.6269 14.8535 34.1455 15.0293C34.4794 15.1436 34.8662 15.5391 34.9453 15.8731C35.0947 16.4444 34.9453 16.6641 33.372 18.2549L31.8779 19.7754L31.8339 20.2412C31.7724 20.9619 32.1416 21.4981 32.8095 21.6651C33.3281 21.7969 33.6445 21.6387 34.4619 20.8565C35.3144 20.0391 35.6835 19.8457 36.2021 19.96C36.5537 20.0391 36.9667 20.4434 37.0546 20.7861C37.081 20.9092 37.081 21.1553 37.0459 21.3399C36.9931 21.6211 36.4218 22.2363 32.2734 26.3936C27.3252 31.3506 26.8505 31.7725 25.7431 32.168C25.2334 32.3526 24.9697 32.3789 22.9834 32.4229C21.4189 32.4668 20.7246 32.5108 20.5664 32.5986C20.2675 32.7568 11.6191 41.3789 11.4609 41.6777C11.3906 41.8096 11.3378 42.0733 11.3378 42.2754C11.3378 43.1192 12.0498 43.708 12.9023 43.5498C13.1835 43.4971 13.746 42.9785 17.4462 39.2783L21.665 35.0684H22.5H23.3349L27.5537 39.2783C31.2539 42.9785 31.8164 43.4971 32.0976 43.5498C32.6865 43.6553 33.2753 43.3828 33.5302 42.8906C33.6884 42.5918 33.706 41.9942 33.5654 41.7217C33.5127 41.6162 31.9306 39.9815 30.041 38.0918L26.622 34.6641L27.1757 34.4268C28.3535 33.9258 28.7578 33.5742 32.7392 29.6016L36.6064 25.752L39.7265 28.8809C41.4404 30.5947 42.9521 32.0625 43.0839 32.1328C43.8134 32.5195 44.8154 32.0449 44.9648 31.2451C45.0878 30.5596 45.0878 30.5596 41.6777 27.1406L38.4697 23.9151L38.7949 23.5459C39.2255 23.0801 39.5419 22.3858 39.665 21.6563C39.9199 20.1621 39.0849 18.457 37.749 17.7451C37.4677 17.5957 37.371 17.499 37.4062 17.4024C37.4326 17.332 37.5029 16.9981 37.5556 16.6729C37.7402 15.4951 37.3447 14.3262 36.4746 13.4473C36.2109 13.1836 35.8154 12.8848 35.6132 12.7969C35.2968 12.6563 35.2441 12.5947 35.288 12.4453C35.7275 10.96 35.4023 9.5713 34.374 8.53419C33.9873 8.14748 33.5039 7.8047 33.1523 7.68165C33.1435 7.68165 33.1962 7.38282 33.2753 7.03126C33.4775 6.16114 33.3544 5.32618 32.9062 4.47364C32.1943 3.12892 30.8759 2.39943 29.3115 2.47853C28.4853 2.52247 27.6767 2.84767 27.0966 3.36622L26.7539 3.68263L25.7519 2.68068C24.6972 1.6172 24.372 1.40626 23.8886 1.41505C23.6953 1.41505 22.7636 1.83693 21.0849 2.68068ZM24.2841 4.9922L24.873 5.58107L23.6865 6.76759L22.5 7.95412L21.4892 6.94337L20.4785 5.93263L21.9902 5.16798C22.8252 4.74611 23.5546 4.40333 23.5986 4.40333C23.6513 4.39454 23.9589 4.65822 24.2841 4.9922ZM16.6376 5.89747C16.9101 6.0381 21.2519 10.3711 21.4101 10.6524C21.7002 11.2061 21.4453 11.9795 20.8828 12.252C20.5312 12.419 20.3203 12.4277 19.9775 12.3047C19.8457 12.252 18.6943 11.1709 17.4199 9.90529C14.9326 7.41798 14.8183 7.26857 15.0293 6.64454C15.1259 6.3545 15.4863 5.95021 15.7324 5.86232C15.9609 5.77443 16.4443 5.80079 16.6376 5.89747ZM13.8339 10.1514C13.9921 10.2305 14.9765 11.1445 16.0136 12.1992C18.0175 14.2119 18.1054 14.335 17.9824 14.9854C17.8681 15.583 17.1562 16.0137 16.5498 15.8643C16.3916 15.8291 15.583 15.0908 14.2646 13.7725C12.4716 11.9795 12.2255 11.6895 12.164 11.3819C12.0849 10.9512 12.3046 10.5117 12.7353 10.2217C13.0869 9.98439 13.4384 9.96681 13.8339 10.1514ZM11.6279 15.0645C12.0146 15.2315 14.3876 17.6485 14.458 17.9561C14.6074 18.5449 14.1943 19.2569 13.6142 19.3799C12.999 19.5205 12.7793 19.3887 11.5048 18.1319C10.2744 16.9277 10.0195 16.5762 10.0195 16.1016C10.0195 15.7588 10.3535 15.2842 10.7226 15.0996C11.0918 14.9063 11.2587 14.9063 11.6279 15.0645ZM9.72066 20.1094C10.0107 20.2676 10.7929 21.1289 10.8896 21.3838C11.0214 21.7266 11.0126 21.9375 10.8457 22.2891C10.5732 22.8516 9.80855 23.1065 9.24605 22.8164C9.11421 22.7461 8.78023 22.4561 8.50777 22.1748C7.80464 21.4277 7.72554 20.874 8.2441 20.294C8.60445 19.8897 9.18452 19.8194 9.72066 20.1094Z" fill="#0579AA"/>
</g>
<defs>
<clipPath id="clip0_343_1388">
<rect width="45" height="45" fill="white"/>
</clipPath>
</defs>
</svg>
