<svg width="45" height="45" viewBox="0 0 45 45" fill="none" xmlns="http://www.w3.org/2000/svg">
<g clip-path="url(#clip0_343_1395)">
<path d="M21.041 0.123039C19.0811 0.500969 17.71 1.1953 16.3125 2.54003C15.5039 3.32226 15.0029 3.99902 14.5195 4.9746C13.3066 7.3828 13.2715 10.2393 14.4229 12.7441L14.7656 13.4912L13.4473 17.3057C12.5684 19.8457 12.1289 21.2519 12.1289 21.4893C12.1289 21.9375 12.4014 22.3769 12.832 22.5967C13.0957 22.7461 13.3506 22.7637 14.9238 22.7637H16.7168L17.9121 23.7393C18.5625 24.2842 19.2041 24.7764 19.3271 24.8379C19.8809 25.1279 20.7158 24.8994 21.0146 24.3721C21.0938 24.2402 21.4453 23.2822 21.7969 22.2539C22.1484 21.2344 22.4648 20.3906 22.4912 20.3906C22.5264 20.3906 22.8164 21.1904 23.1504 22.166C23.4844 23.1504 23.8359 24.0996 23.9238 24.2842C24.1348 24.7148 24.5479 24.9609 25.0488 24.9609C25.541 24.9609 25.7607 24.8291 27.1758 23.6777L28.2832 22.7637H30.0762C31.7637 22.7637 31.8779 22.7461 32.2031 22.5615C32.5898 22.3418 32.8711 21.8848 32.8711 21.4717C32.8711 21.3135 32.2734 19.459 31.5527 17.3408L30.2256 13.5L30.5332 12.8232C30.709 12.4453 30.9551 11.7949 31.0869 11.3643C31.3066 10.6523 31.3242 10.4766 31.3242 9.00878C31.333 7.19823 31.2012 6.52148 30.5947 5.2207C29.6807 3.27831 28.0371 1.64355 26.1387 0.782219C24.6973 0.131828 22.5 -0.158211 21.041 0.123039ZM24.3984 2.94433C26.5342 3.65624 28.1074 5.3789 28.6172 7.54101C28.8281 8.44628 28.749 10.125 28.4502 10.9687C27.5186 13.5879 25.2246 15.2314 22.5 15.2314C18.9932 15.2314 16.2598 12.498 16.2334 8.96484C16.2246 7.83105 16.3828 7.18945 16.9365 6.06445C17.7627 4.37695 19.5117 3.06738 21.3926 2.7246C22.2012 2.58398 23.6162 2.68066 24.3984 2.94433ZM17.2441 16.1719C17.8506 16.6377 19.1074 17.2705 19.8984 17.499C20.2412 17.6045 20.5312 17.7012 20.5488 17.71C20.5576 17.7187 20.2764 18.5713 19.9248 19.5996L19.2832 21.4629L18.7383 21.0146C17.6484 20.1094 17.7012 20.1269 16.418 20.1269C15.5391 20.1269 15.2842 20.1006 15.3105 20.0127C15.3369 19.96 15.6621 18.9844 16.0488 17.8682C16.4268 16.7432 16.752 15.8203 16.7607 15.8203C16.7783 15.8203 16.9893 15.9785 17.2441 16.1719ZM28.9688 17.9297C29.3379 19.0195 29.6631 19.96 29.6807 20.0127C29.7158 20.1006 29.4609 20.1269 28.582 20.1269C27.2988 20.1269 27.3516 20.1094 26.2617 21.0059C25.9717 21.2519 25.7168 21.4453 25.708 21.4277C25.6553 21.3662 24.4248 17.7363 24.4512 17.71C24.4688 17.7012 24.7588 17.6045 25.1016 17.499C25.8926 17.2705 27.1582 16.6289 27.7295 16.1807C27.9756 15.9961 28.1953 15.8643 28.2305 15.8906C28.2568 15.9258 28.5908 16.8398 28.9688 17.9297Z" fill="#0579AA"/>
<path d="M24.3634 6.26661C24.2491 6.32814 23.6339 6.88185 22.9923 7.48829L21.8233 8.59571L21.2433 8.01564C20.6808 7.45314 20.6544 7.43556 20.1534 7.40919C19.7491 7.38282 19.5821 7.40919 19.3536 7.5586C18.9493 7.8047 18.6856 8.41993 18.7648 8.90333C18.8175 9.22853 18.9669 9.4131 20.0304 10.4766C21.8409 12.2871 21.8233 12.2959 24.2579 9.94044C25.1808 9.05275 25.9981 8.20899 26.0773 8.05079C26.3673 7.49708 26.1915 6.7588 25.6817 6.38087C25.4005 6.16993 24.6446 6.09962 24.3634 6.26661Z" fill="#0579AA"/>
<path d="M38.8652 23.7305C37.7578 24.0205 36.6328 24.7148 35.8857 25.585C35.7363 25.752 34.8574 26.9736 33.9258 28.3008C32.9941 29.6279 32.0537 30.9111 31.8252 31.1396C31.333 31.6494 30.3926 32.1416 29.6631 32.2559C29.0391 32.3613 27.2197 32.3701 27.2637 32.2734C27.2812 32.2383 27.4131 31.9746 27.5713 31.6758C28.0723 30.7178 28.3184 29.3555 28.125 28.5732C27.9756 27.9404 27.6152 27.4834 27.0527 27.2109L26.5781 26.9736L19.8545 27C12.3135 27.0352 12.8057 26.9912 11.2939 27.7207C10.8633 27.9229 10.248 28.3008 9.93164 28.5557C9.11426 29.2148 0.193359 38.2588 0.0878906 38.54C0.0351562 38.6719 0 39.8232 0 41.3613C0 43.7871 0.00878906 43.9717 0.175781 44.2969C0.290039 44.5254 0.474609 44.71 0.703125 44.8242C1.03711 44.9912 1.2041 45 6.97852 45C10.8721 45 12.9902 44.9648 13.1484 44.9121C13.2803 44.8594 13.8867 44.3232 14.502 43.7256C15.3984 42.8467 15.7412 42.5742 16.2246 42.3457L16.8311 42.0557L24.0381 42.0029C31.0781 41.959 31.2627 41.9502 31.9307 41.7656C33.8555 41.2295 35.543 40.1748 36.6768 38.8037C37.2305 38.1357 44.6221 27.29 44.8418 26.8154C45.167 26.1387 44.9736 25.6025 44.1738 24.9521C42.6445 23.7129 40.667 23.2559 38.8652 23.7305ZM41.291 26.3232C41.5371 26.4023 41.7656 26.499 41.792 26.543C41.8447 26.6309 35.3057 36.3164 34.6992 37.0459C33.9258 37.9775 32.9326 38.6455 31.6934 39.085L30.9814 39.3311L23.7744 39.3838C17.2266 39.4277 16.5234 39.4453 16.04 39.5859C14.8359 39.9375 13.7812 40.6318 12.6123 41.8271L12.0938 42.3633H7.36523H2.63672V40.9307V39.5068L7.18066 34.9629C11.127 31.0342 11.8037 30.3926 12.2783 30.1553C13.3682 29.6104 13.2715 29.6191 19.6611 29.6191C26.3232 29.6191 25.6992 29.5225 25.2158 30.4805C24.9258 31.0693 24.4512 31.5352 23.8447 31.8252C23.0537 32.2031 22.623 32.2734 20.5488 32.3174C18.3428 32.3701 18.1934 32.4053 17.8418 32.9766C17.4902 33.5566 17.6836 34.2861 18.3076 34.752C18.5537 34.9365 18.6152 34.9365 24.2842 34.9365C29.9707 34.9365 30.0234 34.9365 30.7002 34.7344C31.9834 34.3652 33.293 33.5654 33.9961 32.7129C34.1895 32.4844 35.1035 31.21 36.0352 29.8828C36.9668 28.5557 37.8457 27.334 38.0039 27.1758C38.7949 26.332 40.1396 25.9805 41.291 26.3232Z" fill="#0579AA"/>
</g>
<defs>
<clipPath id="clip0_343_1395">
<rect width="45" height="45" fill="white"/>
</clipPath>
</defs>
</svg>
